<mxfile host="app.diagrams.net" modified="2023-11-13T01:26:07.014Z" agent="Mozilla/5.0 (Windows NT 10.0; Win64; x64) AppleWebKit/537.36 (KHTML, like Gecko) Chrome/119.0.0.0 Safari/537.36 Edg/119.0.0.0" version="21.8.2" etag="2THX3ZX56uFU59jdXT0l" type="github">
  <diagram name="Page-1" id="CBXnH5U6bw011dFiXKSv">
    <mxGraphModel>
      <root>
        <mxCell id="0" />
        <mxCell id="1" parent="0" />
      </root>
    </mxGraphModel>
  </diagram>
</mxfile>
